<svg width="112" height="44" fill="none" xmlns="http://www.w3.org/2000/svg"><path d="M37.208 2.648c-1.51-.21-5.598-.229-5.673-.229-4.38-.115-6.874.497-7.291 1.51-.574 1.39-.342 3.274-.087 4.701.3 1.69.96 3.432 2.707 4.076.536.2 1.108.263 1.679.308 1.418.114 2.848.124 4.27-.002.655-.058 1.314-.144 1.942-.343 2.69-.85 3.82-3.363 4.307-5.93.363-1.92-.345-3.876-1.855-4.09h.001zM46.74 6.74c.487 2.566 1.617 5.08 4.307 5.93.628.198 1.287.284 1.943.341 1.42.127 2.851.117 4.272.003.568-.045 1.14-.108 1.676-.308 1.748-.644 2.41-2.387 2.709-4.076.253-1.427.485-3.312-.088-4.7-.42-1.014-2.91-1.626-7.292-1.51-.074 0-4.164.016-5.672.228-1.51.215-2.218 2.171-1.855 4.092zm-4.96-1.296a3.374 3.374 0 00-.381 1.132c-.417 2.546-1.207 5.274-3.41 6.861-1.41 1.016-3.201 1.378-4.914 1.554-2.171.22-4.366.09-6.49-.393-.776-.177-1.547-.414-2.195-.865-.795-.55-1.353-1.388-1.72-2.28-.158-.377-1.232-4.844-1.109-4.844h-.297a.6.6 0 01-.601-.55c-.076-1.034-.208-3.203.02-3.864.305-.878 2.261-1.687 6.747-2.022 4.489-.338 10.358-.169 11.672.403 1.313.57 6.288.57 7.599 0 1.313-.572 7.185-.74 11.671-.403 4.487.335 6.444 1.144 6.747 2.021.23.662.099 2.831.02 3.865a.598.598 0 01-.598.55h-.3c.126 0-.952 4.466-1.105 4.845-.37.892-.928 1.729-1.724 2.279-.648.451-1.42.688-2.193.865a20.122 20.122 0 01-6.49.392c-1.712-.176-3.506-.536-4.916-1.553-2.203-1.587-2.99-4.315-3.407-6.861a3.303 3.303 0 00-.383-1.132c-.492-.845-1.752-.845-2.244 0zm25.136 22.951c0-1.331-.424-2.455-1.272-3.372-.848-.918-1.948-1.378-3.3-1.378-1.353 0-2.458.46-3.316 1.378-.858.917-1.287 2.04-1.287 3.372 0 1.354.429 2.486 1.287 3.404.858.917 1.963 1.376 3.315 1.376 1.353 0 2.453-.46 3.301-1.377.848-.917 1.272-2.049 1.272-3.403zm-.212-14.731h4.27v22.99h-4.18v-2.027c-1.332 1.613-3.038 2.42-5.117 2.42-2.34 0-4.29-.822-5.843-2.465-1.555-1.644-2.332-3.706-2.332-6.187 0-2.46.782-4.518 2.347-6.17 1.564-1.655 3.507-2.481 5.828-2.481 1.999 0 3.674.776 5.027 2.329v-8.41zm8.206 22.99h4.269V20.166h-4.27v16.488zm2.15-23.566c-.748 0-1.374.248-1.879.742-.504.493-.757 1.114-.757 1.86s.253 1.371.757 1.876c.505.504 1.132.756 1.878.756.747 0 1.373-.251 1.877-.756s.757-1.13.757-1.876-.252-1.367-.757-1.86c-.504-.494-1.13-.742-1.877-.742zm30.277 7.08l-3.752 10.738-4.27-10.739h-4.936l7.209 16.305-.337.756c-.807 1.735-1.875 2.602-3.209 2.602-.646 0-1.353-.181-2.117-.544l-.73 3.569c.868.545 1.928.816 3.18.816 1.638 0 3.009-.508 4.118-1.527 1.11-1.018 2.069-2.576 2.879-4.673L112 20.167h-4.663zm-18.62-.576c0-.925.261-1.639.787-2.132.524-.494 1.282-.742 2.27-.742.747 0 1.635.232 2.667.696l1.39-3.267c-1.514-.806-3.078-1.21-4.692-1.21-1.979 0-3.589.565-4.83 1.694-1.242 1.13-1.863 2.753-1.863 4.87v.666h-2.543v3.57h2.544v12.917h4.27V23.736h5.116v-3.57h-5.116v-.575.001zm-53.594 7.139c-.201-1.068-.665-1.91-1.393-2.526-.727-.614-1.634-.922-2.724-.922-1.07 0-1.983.308-2.74.922-.758.616-1.268 1.458-1.53 2.527h8.387v-.001zm1.818-4.764c1.553 1.482 2.33 3.504 2.33 6.065 0 .585-.05 1.21-.15 1.875H26.735c.605 2.34 2.21 3.51 4.814 3.51.889 0 1.822-.154 2.801-.47.98-.309 1.822-.71 2.528-1.194l1.696 2.995c-2.08 1.512-4.482 2.27-7.206 2.27-2.907 0-5.128-.839-6.662-2.513-1.533-1.673-2.301-3.707-2.301-6.11 0-2.5.798-4.568 2.392-6.2 1.595-1.635 3.663-2.451 6.208-2.451 2.402 0 4.38.74 5.934 2.223zm9.357.408v-2.208h-4.09v16.487h4.27v-7.837c0-1.713.368-2.974 1.105-3.78.737-.805 1.713-1.21 2.924-1.21.604 0 1.259.11 1.965.332l.364-4.083a5.79 5.79 0 00-1.998-.363c-2.019 0-3.532.89-4.539 2.661v.001zm-31.643-8.077h4.42v22.356H16.02L4.421 22.948v13.705H0V14.297h2.846l11.81 13.826V14.297v.001z" fill="#000"/></svg>