<svg width="45" height="16" fill="none" xmlns="http://www.w3.org/2000/svg"><path fill-rule="evenodd" clip-rule="evenodd" d="M16.708 2.807c-1.51-.21-5.597-.229-5.673-.229-4.38-.115-6.874.497-7.291 1.51-.574 1.39-.342 3.274-.087 4.701.3 1.69.96 3.432 2.707 4.076.536.2 1.108.263 1.679.308 1.418.114 2.848.124 4.27-.002.655-.058 1.314-.144 1.942-.343 2.69-.85 3.82-3.363 4.307-5.93.363-1.92-.345-3.876-1.855-4.09h.001zM26.24 6.9c.487 2.566 1.617 5.08 4.307 5.93.628.198 1.287.284 1.943.341 1.42.127 2.851.117 4.272.003.568-.045 1.14-.108 1.676-.308 1.748-.644 2.41-2.387 2.709-4.076.253-1.427.485-3.312-.088-4.7-.42-1.014-2.91-1.626-7.292-1.51-.074 0-4.164.016-5.672.228-1.51.215-2.218 2.171-1.855 4.092zm-4.96-1.296a3.374 3.374 0 00-.381 1.132c-.417 2.546-1.207 5.274-3.41 6.861-1.41 1.016-3.201 1.378-4.914 1.554-2.171.22-4.366.09-6.49-.393-.775-.177-1.547-.413-2.195-.865-.795-.55-1.353-1.388-1.72-2.28-.157-.377-1.232-4.844-1.109-4.844H.764a.6.6 0 01-.601-.55c-.076-1.034-.208-3.203.02-3.864C.488 1.476 2.444.667 6.93.332c4.489-.338 10.358-.169 11.672.403 1.313.57 6.288.57 7.599 0 1.313-.572 7.185-.74 11.671-.403 4.487.335 6.444 1.144 6.747 2.021.23.662.099 2.831.02 3.865a.598.598 0 01-.598.55h-.3c.126 0-.952 4.467-1.105 4.845-.37.892-.928 1.729-1.724 2.279-.648.452-1.42.688-2.193.865a20.122 20.122 0 01-6.49.392c-1.712-.176-3.506-.536-4.916-1.553-2.203-1.587-2.99-4.315-3.407-6.861a3.303 3.303 0 00-.383-1.132c-.492-.845-1.752-.845-2.244 0z" fill="#000"/></svg>